<svg width="230" height="24" viewBox="0 0 230 24" fill="none" xmlns="http://www.w3.org/2000/svg">
  <g fill="#3323E6">
    <path d="M8.85 17.7938C8.64545 17.6563 8.49545 17.4813 8.4 17.2688L6.51818 12.75H3.81818C3.58636 12.75 3.39205 12.6781 3.23523 12.5344C3.07841 12.3906 3 12.2125 3 12C3 11.7875 3.07841 11.6094 3.23523 11.4656C3.39205 11.3219 3.58636 11.25 3.81818 11.25H7.09091C7.26818 11.25 7.42159 11.2938 7.55114 11.3813C7.68068 11.4688 7.77955 11.5875 7.84773 11.7375L9.54545 15.825L13.3091 6.73125C13.4045 6.51875 13.5545 6.34375 13.7591 6.20625C13.9636 6.06875 14.1955 6 14.4545 6C14.7136 6 14.9455 6.06875 15.15 6.20625C15.3545 6.34375 15.5045 6.51875 15.6 6.73125L17.4818 11.25H20.1818C20.4136 11.25 20.608 11.3219 20.7648 11.4656C20.9216 11.6094 21 11.7875 21 12C21 12.2125 20.9216 12.3906 20.7648 12.5344C20.608 12.6781 20.4136 12.75 20.1818 12.75H16.9091C16.7318 12.75 16.5784 12.7063 16.4489 12.6188C16.3193 12.5313 16.2205 12.4125 16.1523 12.2625L14.4545 8.175L10.6909 17.2688C10.5955 17.4813 10.4455 17.6563 10.2409 17.7938C10.0364 17.9313 9.80454 18 9.54545 18C9.28636 18 9.05455 17.9313 8.85 17.7938Z"/>
    <path d="M12 22C10.6167 22 9.31667 21.7375 8.1 21.2125C6.88333 20.6875 5.825 19.975 4.925 19.075C4.025 18.175 3.3125 17.1167 2.7875 15.9C2.2625 14.6833 2 13.3833 2 12C2 10.6167 2.2625 9.31667 2.7875 8.1C3.3125 6.88333 4.025 5.825 4.925 4.925C5.825 4.025 6.88333 3.3125 8.1 2.7875C9.31667 2.2625 10.6167 2 12 2C13.3833 2 14.6833 2.2625 15.9 2.7875C17.1167 3.3125 18.175 4.025 19.075 4.925C19.975 5.825 20.6875 6.88333 21.2125 8.1C21.7375 9.31667 22 10.6167 22 12C22 13.3833 21.7375 14.6833 21.2125 15.9C20.6875 17.1167 19.975 18.175 19.075 19.075C18.175 19.975 17.1167 20.6875 15.9 21.2125C14.6833 21.7375 13.3833 22 12 22ZM12 20C14.2333 20 16.125 19.225 17.675 17.675C19.225 16.125 20 14.2333 20 12C20 9.76667 19.225 7.875 17.675 6.325C16.125 4.775 14.2333 4 12 4C9.76667 4 7.875 4.775 6.325 6.325C4.775 7.875 4 9.76667 4 12C4 14.2333 4.775 16.125 6.325 17.675C7.875 19.225 9.76667 20 12 20Z"/>
  </g>
  <text x="32" y="17" font-family="Plus Jakarta Sans, ui-sans-serif, system-ui, -apple-system, sans-serif" font-size="15" font-weight="600" fill="#18181B">react-native-livechart</text>
</svg>
